<svg id="visual" viewBox="0 0 960 540" width="960" height="540" xmlns="http://www.w3.org/2000/svg" xmlns:xlink="http://www.w3.org/1999/xlink" version="1.1"><rect x="0" y="0" width="960" height="540" fill="#ffffff"></rect><path d="M0 154L22.8 197.2C45.7 240.3 91.3 326.7 137 356.2C182.7 385.7 228.3 358.3 274 304.2C319.7 250 365.3 169 411.2 145.5C457 122 503 156 548.8 170.2C594.7 184.3 640.3 178.7 686 163C731.7 147.3 777.3 121.7 823 94.8C868.7 68 914.3 40 937.2 26L960 12L960 541L937.2 541C914.3 541 868.7 541 823 541C777.3 541 731.7 541 686 541C640.3 541 594.7 541 548.8 541C503 541 457 541 411.2 541C365.3 541 319.7 541 274 541C228.3 541 182.7 541 137 541C91.3 541 45.7 541 22.8 541L0 541Z" fill="#fa7268"></path><path d="M0 362L22.8 358.2C45.7 354.3 91.3 346.7 137 358C182.7 369.3 228.3 399.7 274 401.7C319.7 403.7 365.3 377.3 411.2 330.5C457 283.7 503 216.3 548.8 232.3C594.7 248.3 640.3 347.7 686 366.7C731.7 385.7 777.3 324.3 823 332.8C868.7 341.3 914.3 419.7 937.2 458.8L960 498L960 541L937.2 541C914.3 541 868.7 541 823 541C777.3 541 731.7 541 686 541C640.3 541 594.7 541 548.8 541C503 541 457 541 411.2 541C365.3 541 319.7 541 274 541C228.3 541 182.7 541 137 541C91.3 541 45.7 541 22.8 541L0 541Z" fill="#ef5f67"></path><path d="M0 477L22.8 473.8C45.7 470.7 91.3 464.3 137 462C182.7 459.7 228.3 461.3 274 440C319.7 418.7 365.3 374.3 411.2 383.3C457 392.3 503 454.7 548.8 480.3C594.7 506 640.3 495 686 470C731.7 445 777.3 406 823 407.5C868.7 409 914.3 451 937.2 472L960 493L960 541L937.2 541C914.3 541 868.7 541 823 541C777.3 541 731.7 541 686 541C640.3 541 594.7 541 548.8 541C503 541 457 541 411.2 541C365.3 541 319.7 541 274 541C228.3 541 182.7 541 137 541C91.3 541 45.7 541 22.8 541L0 541Z" fill="#e34c67"></path><path d="M0 387L22.8 407.8C45.7 428.7 91.3 470.3 137 480.5C182.7 490.7 228.3 469.3 274 435.5C319.7 401.7 365.3 355.3 411.2 343.8C457 332.3 503 355.7 548.8 355.5C594.7 355.3 640.3 331.7 686 345.8C731.7 360 777.3 412 823 409.7C868.7 407.3 914.3 350.7 937.2 322.3L960 294L960 541L937.2 541C914.3 541 868.7 541 823 541C777.3 541 731.7 541 686 541C640.3 541 594.7 541 548.8 541C503 541 457 541 411.2 541C365.3 541 319.7 541 274 541C228.3 541 182.7 541 137 541C91.3 541 45.7 541 22.8 541L0 541Z" fill="#d53867"></path><path d="M0 448L22.8 436C45.7 424 91.3 400 137 394.7C182.7 389.3 228.3 402.7 274 405.5C319.7 408.3 365.3 400.7 411.2 406.2C457 411.7 503 430.3 548.8 449.2C594.7 468 640.3 487 686 485.7C731.7 484.3 777.3 462.7 823 457C868.7 451.3 914.3 461.7 937.2 466.8L960 472L960 541L937.2 541C914.3 541 868.7 541 823 541C777.3 541 731.7 541 686 541C640.3 541 594.7 541 548.8 541C503 541 457 541 411.2 541C365.3 541 319.7 541 274 541C228.3 541 182.7 541 137 541C91.3 541 45.7 541 22.8 541L0 541Z" fill="#c62368"></path></svg>