<svg id="visual" viewBox="0 0 960 540" width="960" height="540" xmlns="http://www.w3.org/2000/svg" xmlns:xlink="http://www.w3.org/1999/xlink" version="1.1"><rect x="0" y="0" width="960" height="540" fill="#0275d8"></rect><path d="M0 326L22.8 313C45.7 300 91.3 274 137 266C182.7 258 228.3 268 274 287.3C319.7 306.7 365.3 335.3 411.2 336.8C457 338.3 503 312.7 548.8 293.7C594.7 274.7 640.3 262.3 686 267.5C731.7 272.7 777.3 295.3 823 311.2C868.7 327 914.3 336 937.2 340.5L960 345L960 541L937.2 541C914.3 541 868.7 541 823 541C777.3 541 731.7 541 686 541C640.3 541 594.7 541 548.8 541C503 541 457 541 411.2 541C365.3 541 319.7 541 274 541C228.3 541 182.7 541 137 541C91.3 541 45.7 541 22.8 541L0 541Z" fill="#76b6ee"></path><path d="M0 360L22.8 366C45.7 372 91.3 384 137 386.2C182.7 388.3 228.3 380.7 274 373.2C319.7 365.7 365.3 358.3 411.2 358.5C457 358.7 503 366.3 548.8 376.8C594.7 387.3 640.3 400.7 686 403.3C731.7 406 777.3 398 823 386.5C868.7 375 914.3 360 937.2 352.5L960 345L960 541L937.2 541C914.3 541 868.7 541 823 541C777.3 541 731.7 541 686 541C640.3 541 594.7 541 548.8 541C503 541 457 541 411.2 541C365.3 541 319.7 541 274 541C228.3 541 182.7 541 137 541C91.3 541 45.7 541 22.8 541L0 541Z" fill="#bfdaf7"></path><path d="M0 442L22.8 434.3C45.7 426.7 91.3 411.3 137 408.8C182.7 406.3 228.3 416.7 274 416.2C319.7 415.7 365.3 404.3 411.2 411.5C457 418.7 503 444.3 548.8 447.5C594.7 450.7 640.3 431.3 686 418.7C731.7 406 777.3 400 823 408.3C868.7 416.7 914.3 439.3 937.2 450.7L960 462L960 541L937.2 541C914.3 541 868.7 541 823 541C777.3 541 731.7 541 686 541C640.3 541 594.7 541 548.8 541C503 541 457 541 411.2 541C365.3 541 319.7 541 274 541C228.3 541 182.7 541 137 541C91.3 541 45.7 541 22.8 541L0 541Z" fill="#ffffff"></path></svg>